<?xml version="1.0" encoding="utf-8"?>
<svg version="1.1" id="Layer_1" xmlns="http://www.w3.org/2000/svg" x="0px" y="0px" viewBox="0 0 512 512" style="enable-background:new 0 0 318 318;" xmlns:bx="https://boxy-svg.com" width="512px" height="512px">
  <defs>
    <linearGradient id="color-0" gradientUnits="userSpaceOnUse" bx:pinned="true">
      <title>Text</title>
      <stop style="stop-color: rgb(35, 31, 32)"/>
    </linearGradient>
    <linearGradient id="color-1" gradientUnits="userSpaceOnUse" bx:pinned="true">
      <title>Outline</title>
      <stop style="stop-color: rgb(26, 26, 26)"/>
    </linearGradient>
  </defs>
  <style type="text/css">
	.st0{fill:#00ADEE;}
	.st1{fill:#37B34A;}
	.st2{fill:url(#SVGID_1_);}
	.st3{fill:url(#SVGID_00000102514753750406256470000006348703464064554886_);}
	.st4{fill:#1A1A1A;}
	.st5{fill:#231F20;}
</style>
  <g transform="matrix(3.2, 0, 0, 3.2, -254.864059, -80.171776)">
    <path class="st0" d="M186.55,161.92c-2.87-3.69-5.55-7.21-9.63-9.64c-0.68-0.41-1.35-0.54-1.97-0.48 c-5.42-6.68-11.19-14.01-9.4-22.79c1.48-7.28,11.97-18.1,4.92-24.87c-0.23-0.63-0.67-1.21-1.38-1.65 c-0.66-0.42-1.2-3.84-1.6-4.63c-0.92-1.8-2.77-3.12-2.52-5.24c0.26-2.16,1.3-4.08,1.29-6.36c-0.01-2.55-0.78-4.91-1.89-7.18 c-0.07-0.15-0.15-0.29-0.24-0.42c1.4-0.26,2.51-1.25,2.8-2.54c0.3,0.08,0.63,0.13,0.99,0.13c4.34,0,4.35-6.74,0-6.74 c-0.2,0-0.39,0.02-0.57,0.05c-2.96-2.94-7.4-3.96-11.33-2.25c-0.96,0.42-1.86,0.98-2.65,1.65c-0.7-0.23-1.4-0.48-2.07-0.71 c-3.03-1.03-5.31,2.98-3.78,5.19c-0.67,0.4-1.2,1.03-1.4,1.89c-1,4.51-1.38,7.51-5.39,10.92c-3.05,2.59-5.69,4.27-8.5,7.31 c-0.33,0.35-0.55,0.72-0.7,1.1c-1.22,0.39-2.2,1.41-2.19,3.08c0.01,0.99,0.11,1.92,0.28,2.8c-0.82,0.95-1.12,2.3-0.27,3.7 c2.16,3.57,3.81,7.73,2.65,11.94c-1.09,3.95-4.28,5.82-7.98,6.94c-3.41,1.03-6.94,1.6-10.33,2.72 c-4.08,1.34-7.99,3.16-11.69,5.33c-1.81,1.07-2.29,3.81-0.68,5.3c1.62,1.5,2.42,3.12,2.46,5.34c0.04,2.92,0.57,5.77,2.55,4.76 c0.13-0.05,1.33,0.58,1.47,0.51c3.67-1.78,7.28-6.05,10.71-8.07c0.53-0.31,1.68-1.03,2.27-1.25c5.58-0.12,10.61-0.6,16.01,1.19 c0.82,0.27,1.53,0.23,2.14-0.02c0.1,0.37,0.27,0.74,0.55,1.12c1.78,2.43,3.57,4.86,5.35,7.29c1.23,1.68,2.41,3.72,3.91,5.28 c-0.47,1.36,0.14,2.59,0.29,4.44c0.31,3.89,5.76,3.07,8.4,4.62c1.81,1.06,3.13,2.69,5.01,3.48c0.28,0.24,0.57,0.45,0.88,0.63 c-1.12,1.99-0.19,5.17,2.79,5.17c0.29,1.6,0.91,3.15,1.77,4.32c5.09,6.93,14.14-3.54,17.68-7.42c0.26-0.28,0.45-0.58,0.6-0.88 c0.14-0.1,0.27-0.2,0.38-0.31C187.97,165.27,187.67,163.36,186.55,161.92z" style=""/>
    <path class="st1" d="M209,122.4c0.13-4.96-0.06-9.91-1.46-14.57c1.2-1.06,1.64-2.82,0.77-4.27c-0.59-1-1.19-2-1.78-3.01 c-0.7-1.19-2.19-1.86-3.54-1.62c-0.89-1.3-1.79-2.6-2.71-3.88c1.44-1.04,1.66-2.86,0.94-4.42c-1.79-3.9-4.28-7.41-7.3-10.46 c-1.56-1.57-3.55-1.11-4.74,0.13c-0.29-0.38-0.58-0.77-0.86-1.15c-1.04-1.41-2.62-1.68-3.97-1.28c-0.18-0.28-0.37-0.55-0.55-0.84 c-0.71-1.13-1.76-1.59-2.8-1.58c-0.41-0.77-1.11-1.37-2.02-1.62c-1.71-0.47-3.73,0.57-4.15,2.36c-0.13,0.57-1.57-0.33-1.73,0.24 c-0.28,0.02-0.03,0.57-0.29,0.66c-1.34-0.43-2.15,0.87-3.15,2.36c-3.46,5.17-3.14,10.92-0.5,16.33 c3.05,6.24,5.19,12.38,5.62,19.39c0.03,0.45,0.13,0.85,0.28,1.21c-0.45,1.8-1.79,2.6-2.47,4.31c-1.39,0.11-2.09,1.98-2.29,3.4 c-0.04,0.25-0.08,0.5-0.12,0.75c-1.34,0.41-2.07,1.59-2.19,2.85c-0.1,0.31-0.15,0.64-0.14,0.97c0.03,0.78-1.03,2-0.54,2.6 c-0.94,3.61,0.01,6.65,3.21,9.89c0.43,0.43,0.89,0.7,1.36,0.86c0.14,0.54,0.46,1.07,1,1.55c3.16,2.8,6.36,5.56,9.47,8.41 c3.07,2.81,4.86,7.59,7.42,10.85c1.95,2.48,5.61-0.77,6.11-3.27c0.37-0.07,0.7-0.19,1-0.35c1.08-0.2,2.03-0.93,2.36-2.35 c0.12-0.51,0.28-0.99,0.45-1.46c0.48-0.38,0.87-0.93,1.08-1.67c0.13-0.43,0.25-0.87,0.38-1.3c0.57-0.96,1.18-1.91,1.76-2.9 c1.44-2.46,2.59-5.05,3.65-7.69c2.08-5.2,4.39-10.77,4.34-16.45C210.89,123.84,210.07,122.86,209,122.4z" style=""/>
    <path class="st1" d="M156.83,163.43c-1.97-1.74-4.5-0.67-5.46,1.08c-0.52-0.48-1.04-0.95-1.56-1.45 c-2.53-2.39-3.02-5.78-4.93-8.61c-1.97-2.91-4.29-5.63-6.47-8.39c-1.98-2.51-4.08-4.74-7.33-5.4c-0.06-0.01-0.12-0.02-0.18-0.03 c-0.42-2.16-2.56-3.89-4.74-2.22c-4.26,3.25-8.52,6.5-12.78,9.75c-2.81-0.57-5.64,2.66-3.73,5.01c0.19,1.9,1.73,3.61,3.56,3.2 c5.13,4.76,9.84,10.05,16.26,13.12c0,0,0,0,0,0c0.24,0.48,0.61,0.92,1.14,1.29c5.28,3.68,12.72,4.74,18.8,6.52 c1.64,0.48,2.9-0.23,3.59-1.34c1.42,0.58,2.83,1.24,4.22,2c2.14,1.17,5.21-0.27,5.07-2.91 C162.04,170.5,160.27,166.46,156.83,163.43z" style=""/>
    <linearGradient id="SVGID_1_" gradientUnits="userSpaceOnUse" x1="187.4426" y1="78.3784" x2="219.9937" y2="78.3784">
      <stop offset="0" style="stop-color:#FFF23A"/>
      <stop offset="0.0401" style="stop-color:#FEE62D"/>
      <stop offset="0.1171" style="stop-color:#FED41A"/>
      <stop offset="0.1964" style="stop-color:#FDC90F"/>
      <stop offset="0.2809" style="stop-color:#FDC60B"/>
      <stop offset="0.6685" style="stop-color:#F28F3F"/>
      <stop offset="0.8876" style="stop-color:#ED693C"/>
      <stop offset="1" style="stop-color:#E83E39"/>
    </linearGradient>
    <path class="st2" d="M218.11,100.15c-0.21-0.95-0.45-1.89-0.73-2.83c1.78-0.62,3.28-2.71,2.29-4.98 c-5.86-13.41-11.08-27.09-15.68-40.99c-0.2-0.6-0.51-1.07-0.88-1.42c-0.24-2.53-1.57-4.73-4.6-5.98 c-4.01-1.65-5.76,4.87-1.79,6.5c-0.28-0.12-2.45,8.7-2.7,9.78c-0.68,3-2.71,5.54-4.04,8.35c-2.93,0.32-3.42,4.75-1.01,6.28 c5.19,3.3,9.68,7.47,13.29,12.46c0.75,1.04,1.8,1.46,2.83,1.46c-1.62,1.1-2.38,3.34-0.46,4.92c1.83,1.51,3.53,3.16,4.9,5.11 c0.41,0.58,0.79,1.19,1.15,1.8c-1.37,1.69-0.88,4.77,1.46,5.47c0.08,1.24,0.07,2.49-0.03,3.75c-0.37,4.32,6.38,4.3,6.74,0 c0.11-1.33,0.12-2.65,0.05-3.95C219.55,104.03,218.99,102.01,218.11,100.15z" style=""/>
    <linearGradient id="SVGID_00000149353738983915509400000005956540570809445530_" gradientUnits="userSpaceOnUse" x1="119.0427" y1="34.2579" x2="133.8308" y2="102.203">
      <stop offset="0" style="stop-color:#FFF23A"/>
      <stop offset="0.0401" style="stop-color:#FEE62D"/>
      <stop offset="0.1171" style="stop-color:#FED41A"/>
      <stop offset="0.1964" style="stop-color:#FDC90F"/>
      <stop offset="0.281" style="stop-color:#FDC60B"/>
      <stop offset="0.669" style="stop-color:#F28F3F"/>
      <stop offset="0.888" style="stop-color:#ED693C"/>
      <stop offset="1" style="stop-color:#E83E39"/>
    </linearGradient>
    <path style="fill: url(&quot;#SVGID_00000149353738983915509400000005956540570809445530_&quot;);" d="M156.92,56.88 c5.39-1.44,2.08-13,1.24-16.52c-0.24-1-0.79-1.66-1.48-2.03c-0.54-0.7-1.39-1.19-2.55-1.19c-2.63,0-3.66,2.48-3.1,4.43 c-0.21,1.89-1.81,3.98-2.52,5.67c-0.81,1.9-1.52,3.84-2.21,5.79c-0.57,1.61-1.7,2.2-2.26,3.81c-0.13,0.1-0.54,1.2-0.66,1.32 c-0.41,0.4,0.14,0.84-0.1,1.27c-1.08,0.19-2.04,0.93-2.36,2.36c-0.6,2.65-2.34,4.74-3.45,7.19c-0.28,0.61-0.47,1.31-0.66,2.04 c-0.31,0.02-0.64,0.08-0.99,0.2c-3.02,1.06-6.12,1.73-9.28,2.24c-0.35,0.06-1.88,0.52-2.18,0.32c0.03,0.02-0.7-1.77-0.78-1.91 c-0.65-1.12-1.39-2.19-2.11-3.27c0.72-1.45,0.64-3.04,0.66-4.83c0.03-2.84,0.18-5.73,0.06-8.57c-0.19-4.39-1.45-9.27-5.88-11.16 c-3.03-1.29-5.75,1.82-5.06,4.11c-1.03,0.47-1.81,1.45-1.81,2.93c0.01,1.88,0.56,3.47,1.4,5.14c0.1,0.2,0.18,0.38,0.27,0.56 c-1.65,0.04-3.17,1.11-2.99,3.23c0.07,0.82,0.08,1.63,0.07,2.44c-1.46-0.18-2.91,0.52-3.24,2.41c-0.9,5.21-1.39,10.37-1.06,15.63 c-1.83,0.61-3.28,2.68-2.08,4.89c1.12,2.05,2.23,4.1,3.35,6.15c0.33,1.98,0.76,3.94,1.31,5.84c-0.6,0.53-1.04,1.27-1.16,2.22 c-0.54,4.1-2.24,7.93-3.27,11.91c-1.02,3.95-1.23,8-1.33,12.06c-0.07,3.22,3.61,4.05,5.56,2.5c0.45,0.06,0.91,0.06,1.38-0.01 c3.27-0.48,5.98-2.26,8.33-4.46c0.4,0.17,0.83,0.25,1.28,0.25h0.3c0.46,0.02,0.9-0.08,1.3-0.29c0.3-0.1,0.56-0.26,0.8-0.45 c0.99,0.23,2.06,0,2.96-0.89c0.27-0.27,0.53-0.55,0.77-0.85c0.24,0.05,0.5,0.08,0.77,0.08c0.04,0,0.08-0.01,0.12-0.01 c0.06,0,0.12,0.01,0.18,0.01c2.73,0,3.74-2.66,3.03-4.64c1.11-1.29,1.09-3.45-0.06-4.71c0-0.02,0-0.04-0.01-0.06 c0.16-0.58,0.2-1.19,0-1.76c-0.1-0.3-0.2-0.6-0.31-0.9c-0.1-0.44-0.31-0.82-0.6-1.15c-0.16-0.25-0.37-0.45-0.61-0.63 c-0.37-0.86-1.07-1.56-2.13-1.8c0.45-2.42,1.94-5.06,2.92-6.97c1.28-2.49,2.6-4.87,2.52-7.68c3.89-1.26,8.51-3.53,9.81-7.79 c0.14-0.46,0.57-0.71,0.72-1.08c1.2-1.21,1.82-2.55,2.3-3.97c0.76-0.35,1.41-0.98,1.77-1.95c0.58-1.55,1.66-2.85,2.59-4.22 c0.78-0.35,1.44-1,1.79-2.01c0.7-2.02,1.39-4.04,2.08-6.06c0.53,0.77,1.41,1.31,2.64,1.31c0.52,0,0.97-0.1,1.36-0.27 c0.39,0.16,0.85,0.14,1.34,0.27C161.42,64.89,160.45,58.49,156.92,56.88z M117.31,83.34c0.3,2.73-0.27,5.31-1.15,7.83 c-0.03-0.08-0.06-0.16-0.09-0.24c-1.18-2.61-2.36-5.21-3.55-7.82c0.11-0.36,0.15-0.77,0.11-1.23c-0.16-1.83-0.06-3.64,0.17-5.44 c1.01,1.15,1.83,2.55,2.9,3.59c0.58,0.57,1.21,1.11,1.88,1.59C117.34,82.09,117.24,82.66,117.31,83.34z"/>
    <g style="">
      <path class="st4" d="M188.67,170.99c-0.35,0-0.69-0.06-1.03-0.17c-1.01-0.34-1.79-1.14-2.09-2.17c-0.2-0.66-0.38-1.33-0.57-1.99 c-1-3.52-1.94-6.84-3.92-9.34c-1.66-2.1-4.09-3.66-6.66-5.32c-2.46-1.58-5-3.22-7.17-5.5c-3.36-3.52-5.29-8.33-5.44-13.53 c-0.15-5.2,1.5-10.11,4.65-13.83c0.74-0.88,1.53-1.66,2.29-2.42c1.34-1.33,2.6-2.59,3.16-3.96c0.73-1.76,0.46-4.15-0.73-6.58 c-0.93-1.89-2.26-3.64-3.67-5.5c-0.47-0.62-0.96-1.27-1.44-1.92c-2-2.74-4.34-6.44-4.66-10.8c-0.39-5.34,2.47-10.96,7.46-14.67 c2.63-1.96,5.74-3.43,9.79-4.64c0.78-0.23,1.62-0.16,2.35,0.19c2.05,1,4.05,2.11,5.94,3.31c17.36,11,27.73,29.82,27.73,50.36 c0,0.85-0.01,1.51-0.04,2.13c0,0,0,0.01,0,0.01c-0.64,18.15-9.38,34.8-23.99,45.67C190.05,170.77,189.36,170.99,188.67,170.99z M179.28,75.29c-2.7,0.9-4.8,1.94-6.55,3.24c-2.52,1.88-5.12,5.22-4.85,8.97c0.2,2.71,1.94,5.4,3.43,7.44 c0.44,0.61,0.89,1.19,1.36,1.82c1.54,2.02,3.12,4.11,4.33,6.57c2.05,4.17,2.37,8.41,0.91,11.94c-1.06,2.58-2.94,4.44-4.59,6.08 c-0.69,0.69-1.35,1.34-1.91,2.01c-4.32,5.1-4.06,13.82,0.55,18.65c1.63,1.72,3.74,3.08,5.98,4.51c2.91,1.87,5.91,3.8,8.24,6.75 c2.14,2.7,3.32,5.75,4.26,8.82c10.77-9.61,17.15-23.08,17.67-37.63c0-0.03,0-0.05,0-0.08c0.03-0.53,0.04-1.1,0.04-1.86 c0-18.29-9.23-35.06-24.7-44.86C182.1,76.83,180.71,76.03,179.28,75.29z M211.35,124.55L211.35,124.55L211.35,124.55z" style=""/>
      <path class="st4" d="M155.07,182.11c-11.28,0-22.27-3.17-31.77-9.17c-7.79-4.92-14.43-11.68-19.21-19.56 c-0.66-1.09-0.63-2.46,0.09-3.52c1.15-1.7,2.43-3.49,4-5.1c2.41-2.49,5.23-4.29,7.67-5.73c2.75-1.62,5.77-3.2,9.21-3.8 c5.24-0.92,11.03,0.67,15.47,4.27c3.9,3.18,6.81,7.88,8.2,13.24c0.08,0.31,0.15,0.61,0.23,0.92c0.31,1.27,0.6,2.46,1.14,3.1 c0.62,0.72,1.91,1.18,3.28,1.67c0.64,0.23,1.31,0.46,1.99,0.75c4.72,1.99,8.66,6.13,10.81,11.35c0.9,2.18,1.5,4.58,1.78,7.13 c0.01,0.12,0.02,0.24,0.02,0.36v0.01c0,1.59-1.14,2.94-2.71,3.21C161.92,181.82,158.49,182.11,155.07,182.11z M110.79,151.78 c4.15,6.26,9.64,11.65,15.99,15.65c8.46,5.34,18.24,8.16,28.29,8.16c1.95,0,3.89-0.11,5.82-0.32c-0.21-0.79-0.46-1.55-0.76-2.27 c-1.5-3.65-4.16-6.5-7.32-7.83c-0.5-0.21-1.04-0.41-1.62-0.61c-1.92-0.68-4.31-1.53-6.06-3.58c-1.55-1.81-2.09-4.02-2.52-5.79 c-0.07-0.28-0.13-0.55-0.2-0.83c-1.04-4.02-3.17-7.51-6-9.81c-2.99-2.42-6.82-3.52-10.24-2.91c-2.42,0.42-4.8,1.69-7.02,2.99 c-2.07,1.22-4.43,2.73-6.31,4.66C112.12,150.05,111.43,150.9,110.79,151.78z" style=""/>
      <path class="st4" d="M99.24,133.16c-0.41,0-0.83-0.08-1.23-0.24c-1.04-0.42-1.79-1.35-1.98-2.45c-0.05-0.29-0.09-0.6-0.13-0.91 c-0.27-2.33-0.41-4.71-0.41-7.04c0-2.51,0.15-5.02,0.46-7.46c0.71-5.66,2.22-11.16,4.51-16.38c-3.09-9.17-3.74-17.74-1.92-25.5 c1.01-4.31,2.76-8.3,4.45-12.16c0.71-1.62,1.45-3.3,2.1-4.94c2.53-6.34,3.23-11.24,2.21-15.43c-0.27-1.11,0.06-2.28,0.87-3.09 c0.81-0.8,1.98-1.13,3.09-0.85c5.89,1.48,10.8,5.95,12.82,11.67c1.13,3.22,1.29,6.46,1.44,9.59c0.12,2.6,0.24,5.05,0.91,7.25 c0.4,1.33,1.04,2.66,1.92,4.04c1.28-0.64,2.58-1.24,3.89-1.78c0.33-0.13,0.65-0.26,0.97-0.39c0.44-1.68,0.99-3.33,1.65-4.91 c1.7-4.1,4.09-7.75,6.39-11.28c0.97-1.48,1.97-3.01,2.88-4.53c3.53-5.86,5.01-10.58,4.68-14.86c-0.09-1.14,0.43-2.24,1.36-2.91 c0.93-0.66,2.14-0.79,3.19-0.33c5.56,2.41,9.68,7.63,10.74,13.6c0.6,3.36,0.22,6.59-0.14,9.71c-0.3,2.58-0.58,5.02-0.28,7.3 c0.27,1.99,1,4.06,2.23,6.33c0.59,1.08,0.52,2.4-0.18,3.41c-0.7,1.01-1.91,1.54-3.13,1.37c-2.5-0.35-5.04-0.52-7.53-0.52 c-0.99,0-1.94,0.03-2.83,0.08c-2.56,0.13-4.6,2.19-4.77,4.79c0,0.06,0,0.11-0.01,0.17c-0.36,6.22-3.33,11.92-7.92,15.25 c-0.61,0.44-1.22,0.82-1.85,1.21l-0.25,0.16c-0.45,0.28-0.87,0.54-1.26,0.81c-1.12,0.78-2.22,1.78-3.34,3.05 c-2.19,2.49-4.1,6.09-2.89,8.76c0.21,0.45,0.55,0.97,0.92,1.52c0.33,0.49,0.7,1.05,1.03,1.66c2.65,4.8,1.98,11.04-1.64,15.17 c-4.08,4.65-10.21,5.5-15.62,6.25l-0.6,0.08c-3.91,0.55-8,1.32-11.45,3.22c-0.55,0.31-1.03,0.6-1.46,0.91 C100.58,132.96,99.91,133.16,99.24,133.16z M114.25,45.39c-0.16,5.03-1.74,9.68-3.1,13.1c-0.69,1.75-1.45,3.48-2.19,5.15 c-1.65,3.75-3.2,7.3-4.07,11.02c-1.61,6.87-0.89,14.64,2.15,23.08c0.29,0.81,0.25,1.7-0.11,2.48 c-2.31,4.96-3.82,10.22-4.5,15.65c-0.27,2.17-0.41,4.41-0.41,6.65c0,0.72,0.01,1.44,0.04,2.16c3.63-1.51,7.44-2.21,11.09-2.72 l0.61-0.08c4.49-0.62,9.14-1.27,11.62-4.09c1.78-2.04,2.14-5.36,0.84-7.72c-0.21-0.38-0.48-0.78-0.76-1.2 c-0.47-0.7-0.99-1.49-1.42-2.42c-2.12-4.68-0.65-10.57,3.93-15.77c1.48-1.68,2.96-3.02,4.53-4.11c0.53-0.36,1.03-0.68,1.52-0.98 l0.26-0.16c0.01-0.01,0.02-0.01,0.03-0.02c0.54-0.33,1.01-0.62,1.43-0.92c3.01-2.18,4.97-6.01,5.24-10.27c0-0.05,0-0.1,0-0.14 c0.31-5.98,5.01-10.72,10.93-11.03c1.84-0.1,3.96-0.11,6.04-0.02c-0.33-1.1-0.57-2.19-0.71-3.28c-0.41-3.09-0.06-6.05,0.27-8.91 c0.32-2.77,0.63-5.39,0.2-7.81c-0.37-2.1-1.37-4.09-2.79-5.7c-0.98,4.93-3.29,9.26-5.19,12.42c-0.97,1.61-2,3.19-3,4.72 c-2.24,3.44-4.36,6.68-5.83,10.22c-0.73,1.77-1.31,3.63-1.71,5.54c-0.24,1.1-1.02,2-2.08,2.38c-0.78,0.28-1.56,0.58-2.36,0.91 c-1.95,0.81-3.88,1.75-5.73,2.8c-1.39,0.79-3.15,0.46-4.15-0.79c-2.28-2.83-3.8-5.57-4.66-8.4c-0.91-2.97-1.05-5.95-1.19-8.83 c-0.13-2.79-0.26-5.42-1.08-7.73C117.21,48.56,115.91,46.76,114.25,45.39z" style=""/>
      <path class="st4" d="M164.71,181.28c-0.7,0-1.39-0.23-1.96-0.65c-0.72-0.54-1.18-1.35-1.28-2.24c-0.22-1.94-0.67-3.75-1.34-5.38 c-1.49-3.65-4.16-6.5-7.32-7.83c-0.5-0.21-1.04-0.41-1.62-0.61c-1.92-0.68-4.31-1.53-6.06-3.58c-1.55-1.81-2.09-4.02-2.52-5.79 c-0.07-0.28-0.13-0.55-0.2-0.83c-1.04-4.02-3.17-7.51-6-9.81c-2.99-2.42-6.82-3.52-10.24-2.91c-2.42,0.42-4.8,1.69-7.02,2.99 c-2.07,1.22-4.43,2.73-6.31,4.66c-1.22,1.25-2.3,2.77-3.28,4.22c-0.62,0.92-1.67,1.45-2.78,1.43c-1.11-0.03-2.13-0.62-2.7-1.57 c-4.3-7.08-7.02-14.84-8.08-23.05c-0.15-1.19,0.36-2.36,1.33-3.06c0.64-0.46,1.33-0.89,2.11-1.32 c4.37-2.41,9.16-3.33,13.69-3.97l0.61-0.08c4.49-0.62,9.14-1.27,11.62-4.09c1.78-2.04,2.14-5.36,0.84-7.72 c-0.21-0.38-0.48-0.78-0.76-1.2c-0.47-0.7-0.99-1.49-1.42-2.42c-2.12-4.68-0.65-10.57,3.93-15.77c1.48-1.68,2.96-3.02,4.53-4.11 c0.53-0.36,1.03-0.68,1.52-0.98l0.26-0.16c0.01-0.01,0.02-0.01,0.03-0.02c0.54-0.33,1.01-0.62,1.43-0.92 c3.04-2.2,4.99-6.07,5.24-10.36l0-0.03c0.31-5.99,5.01-10.74,10.93-11.05c3.84-0.2,7.74-0.03,11.6,0.5 c6.1,0.87,11.97,2.66,17.48,5.32c1.21,0.58,1.94,1.85,1.83,3.19c-0.11,1.34-1.03,2.48-2.32,2.86c-3.29,0.98-5.76,2.13-7.76,3.62 c-2.52,1.88-5.12,5.22-4.85,8.97c0.2,2.71,1.94,5.4,3.43,7.44c0.44,0.61,0.89,1.19,1.36,1.82c1.54,2.02,3.12,4.11,4.33,6.57 c2.05,4.17,2.37,8.41,0.91,11.94c-1.06,2.58-2.94,4.44-4.59,6.08c-0.69,0.69-1.35,1.34-1.91,2.01 c-4.32,5.1-4.06,13.82,0.55,18.65c1.63,1.72,3.74,3.08,5.98,4.51c2.91,1.87,5.91,3.8,8.24,6.75c2.78,3.52,3.95,7.63,5.08,11.61 c0.18,0.64,0.36,1.28,0.55,1.92c0.39,1.31-0.08,2.72-1.18,3.54c-7.48,5.56-16.24,9.33-25.35,10.89 C165.08,181.26,164.89,181.28,164.71,181.28z M128.03,134.97c4.37,0,8.88,1.6,12.49,4.53c3.9,3.18,6.81,7.88,8.2,13.24 c0.08,0.31,0.15,0.61,0.23,0.92c0.31,1.27,0.6,2.46,1.14,3.1c0.62,0.72,1.91,1.18,3.28,1.67c0.64,0.23,1.31,0.46,1.99,0.75 c4.72,1.99,8.66,6.13,10.81,11.35c0.47,1.15,0.87,2.37,1.17,3.63c6.24-1.48,12.23-4.12,17.57-7.75 c-0.97-3.42-1.91-6.65-3.85-9.09c-1.66-2.1-4.09-3.66-6.66-5.32c-2.46-1.58-5-3.22-7.17-5.5c-3.36-3.52-5.29-8.33-5.44-13.53 c-0.15-5.2,1.5-10.11,4.65-13.83c0.74-0.88,1.53-1.66,2.29-2.42c1.34-1.33,2.6-2.59,3.16-3.96c0.73-1.76,0.46-4.15-0.73-6.58 c-0.93-1.89-2.26-3.64-3.67-5.5c-0.47-0.62-0.96-1.27-1.44-1.92c-2-2.74-4.34-6.44-4.66-10.8c-0.39-5.34,2.47-10.96,7.46-14.67 c0.68-0.5,1.38-0.97,2.13-1.42c-2.73-0.86-5.53-1.49-8.39-1.9c-3.43-0.48-6.92-0.63-10.35-0.45c-2.58,0.14-4.62,2.23-4.76,4.87 l0,0.08c-0.36,6.23-3.33,11.94-7.93,15.26c-0.61,0.44-1.22,0.82-1.85,1.21l-0.25,0.16c-0.45,0.28-0.87,0.54-1.26,0.81 c-1.12,0.78-2.22,1.78-3.34,3.05c-2.19,2.49-4.1,6.09-2.89,8.76c0.21,0.45,0.55,0.97,0.92,1.52c0.33,0.49,0.7,1.05,1.03,1.66 c2.65,4.8,1.98,11.04-1.64,15.17c-4.08,4.65-10.21,5.5-15.62,6.25l-0.6,0.08c-3.84,0.54-7.86,1.3-11.27,3.13 c0.84,4.93,2.35,9.67,4.54,14.15c0.28-0.32,0.56-0.63,0.86-0.94c2.41-2.49,5.23-4.29,7.67-5.73c2.75-1.62,5.77-3.2,9.21-3.8 C126.03,135.05,127.03,134.97,128.03,134.97z" style=""/>
      <path class="st4" d="M211.35,127.8c-0.29,0-0.58-0.04-0.87-0.12c-1.47-0.41-2.46-1.78-2.39-3.3c0.03-0.53,0.04-1.1,0.04-1.86 c0-18.29-9.23-35.06-24.7-44.86c-1.13-0.72-1.71-2.06-1.45-3.38c0.07-0.34,0.14-0.73,0.24-1.14c1-4.28,2.75-8.27,4.44-12.13 c0.71-1.62,1.45-3.3,2.1-4.94c2.53-6.34,3.23-11.24,2.21-15.43c-0.27-1.11,0.06-2.28,0.87-3.09c0.81-0.81,1.98-1.13,3.09-0.85 c5.89,1.48,10.8,5.95,12.82,11.67c1.13,3.22,1.29,6.46,1.44,9.59c0.13,2.6,0.24,5.05,0.91,7.25c0.69,2.25,1.99,4.45,4.1,6.95 c3.22,3.8,5.67,8.04,7.3,12.61c1.53,4.31,2.3,8.81,2.3,13.38c0,6.58-1.64,13.12-4.75,18.91l-4.83,9.01 C213.65,127.16,212.53,127.8,211.35,127.8z M188.87,73.45c13.51,9.3,22.43,23.5,25.01,39.43c2.23-4.57,3.41-9.63,3.41-14.72 c0-3.82-0.65-7.59-1.93-11.2c-1.36-3.83-3.42-7.38-6.13-10.58c-2.7-3.19-4.41-6.13-5.36-9.26c-0.91-2.98-1.05-5.96-1.19-8.84 c-0.13-2.79-0.26-5.42-1.08-7.73c-0.71-2-2.02-3.8-3.68-5.17c-0.16,5.03-1.74,9.68-3.1,13.1c-0.69,1.75-1.45,3.48-2.19,5.15 C191.17,66.99,189.77,70.17,188.87,73.45z" style=""/>
      <path class="st4" d="M115.04,97.96c-0.68,0-1.36-0.21-1.95-0.65c-1.44-1.08-1.74-3.12-0.66-4.56c2.1-2.82,1.51-4.82-0.03-9.07 c-0.25-0.69-0.5-1.39-0.75-2.14c-1.94-5.84-1.77-7.9-1-13.01l0.16-1.07c0.26-1.78,1.92-3.01,3.7-2.75 c1.78,0.26,3.01,1.92,2.75,3.7l-0.16,1.09c-0.66,4.41-0.8,5.32,0.74,9.98c0.22,0.66,0.46,1.33,0.7,1.98 c1.6,4.42,3.41,9.44-0.88,15.19C117.02,97.51,116.04,97.96,115.04,97.96z" style=""/>
      <path class="st4" d="M150.23,69.69c-1.49,0-2.83-1.03-3.17-2.54c-0.56-2.45-1.25-5.49-0.43-8.62c0.39-1.47,1.05-2.73,1.63-3.84 l0.66-1.26c0.84-1.59,2.81-2.2,4.4-1.36c1.59,0.84,2.2,2.81,1.36,4.4l-0.67,1.26c-0.46,0.87-0.89,1.7-1.09,2.44 c-0.42,1.59,0.06,3.68,0.48,5.53c0.4,1.75-0.7,3.5-2.46,3.9C150.71,69.66,150.47,69.69,150.23,69.69z" style=""/>
      <path class="st4" d="M203.39,96.82c-0.62,0-1.24-0.17-1.79-0.54c-1.5-0.99-1.92-3.01-0.92-4.51c1.66-2.52,2.09-5.75,1.12-8.42 c-0.69-1.9-2.05-3.74-4.15-5.64c-1.33-1.21-1.44-3.27-0.23-4.6c1.21-1.33,3.27-1.44,4.6-0.23c2.9,2.63,4.83,5.32,5.89,8.24 c1.66,4.58,0.97,10.03-1.81,14.24C205.48,96.3,204.44,96.82,203.39,96.82z" style=""/>
    </g>
  </g>
</svg>